<svg xmlns="http://www.w3.org/2000/svg">
<symbol id="phone" viewBox="0 0 14 15">
<path d="M13.7455 13.0923C13.4909 13.5935 12.9818 13.8441 12.4727 14.0947C11.8364 14.4706 11.3273 14.5959 10.6909 14.5959C9.8 14.5959 8.90909 14.22 8.14545 13.9694C7.50909 13.7188 7 13.4682 6.36364 13.2176C4.58182 12.09 2.54545 10.0853 1.52727 8.45643C1.14545 7.82996 0.890909 7.32878 0.636364 6.70231C0.381818 5.82525 0 5.07349 0 4.07113C0 3.44466 0.127273 2.81819 0.509091 2.19172C0.763636 1.69054 1.01818 1.18936 1.52727 0.938771C1.90909 0.938771 2.54545 0.813477 2.92727 0.813477C3.05455 0.813477 3.05455 0.813477 3.18182 0.813477C3.43636 0.938771 3.56364 1.31465 3.69091 1.56524C3.94545 2.19172 4.32727 2.69289 4.58182 3.31936C4.83636 3.56995 5.09091 3.82054 5.09091 4.07113C5.09091 4.6976 3.30909 5.57466 3.30909 6.07584C3.30909 6.32643 3.56364 6.70231 3.69091 6.9529C4.70909 8.70702 5.98182 9.95997 7.76364 10.9623C8.01818 11.0876 8.4 11.3382 8.65455 11.3382C9.16364 11.3382 10.0545 9.58408 10.6909 9.58408C10.9455 9.58408 11.2 9.83467 11.4545 10.0853C11.9636 10.4611 12.6 10.7117 13.1091 11.0876C13.3636 11.2129 13.7455 11.3382 13.8727 11.5888C13.8727 11.7141 13.8727 11.7141 13.8727 11.8394C14 12.09 13.8727 12.7164 13.7455 13.0923Z"/>
</symbol>

<symbol id="leaves" viewBox="0 0 16 15.2" style="enable-background:new 0 0 16 15.2;" xml:space="preserve">
    <path d="M2.3,9.3c0,0.2,0.1,0.4,0.1,0.6C2.4,10.7,2.5,12,2.5,12H3C3,12,3,9.9,2.7,8.8c-0.3-1.2-0.4-3.4,0.3-5L2.5,3.6
		c0,0-0.6,1.2-0.6,3.1c0,1.2,0.1,1.7,0.2,2.2C1.7,8.6,0.6,7.6,0.7,5.5C0.9,3.1,3,0.9,3,0.9s3.7,3.5,0.4,7.4l0.4,0.3
		c0,0,1.5-1.7,1.5-3.6c0-1.9-0.8-3.5-2.3-4.8c0,0-2.6,2.5-2.8,5.5C0.1,8.5,2.2,9.5,2.2,9.5L2.3,9.3z"/>
	<path d="M7.5,6.7C3.8,7.8,4,11.4,4.1,12.2c-1.3,1.3-1.9,2.5-1.9,2.5l0.4,0.2c3.8-6.3,9.7-5.1,9.7-5.1V9.3
		c-3.6-0.4-6.1,1-7.8,2.4l0,0C4.4,10.4,5,7.3,8.8,7c4.4-0.1,6.5,2.5,6.5,2.5c-2.3,3.7-4.9,4.2-6.5,4.4C7.1,14.2,5,13,5,13l-0.2,0.4
		c0,0,1.8,1.2,4.1,1c5-0.6,6.9-5,6.9-5C15.3,8.4,11.6,5.7,7.5,6.7z"/>
</symbol>

<symbol id="delivery" viewBox="0 0 18.2 14.8" style="enable-background:new 0 0 18.2 14.8;" xml:space="preserve">
	<path d="M2.9,5.7l1-0.8c0,0,0.1,0,0.1,0c0.3,0,0.5-0.2,0.5-0.5c0-0.2-0.1-0.3-0.2-0.4V1.9H3.8V4
		C3.6,4.1,3.5,4.2,3.5,4.4c0,0,0,0.1,0,0.1l-1,0.8L2.9,5.7z"/>
	<path d="M18.1,11.1V7.9c0-1-0.4-1.4-0.4-1.4s-1-1.3-1.6-2.1s-1.4-0.8-1.4-0.8h-3.4V3.1c0-0.7-0.5-1.2-1.2-1.2H7.2
		C6.5,0.9,5.3,0.2,4,0.2C1.8,0.2,0.1,2,0.1,4.2c0,0.9,0.3,1.7,0.8,2.4V11c0,0.7,0.5,1.2,1.2,1.2h0.5c0,0,0,0.1,0,0.1
		c0,1.2,1,2.2,2.2,2.2c1.2,0,2.2-1,2.2-2.2c0-0.1,0-0.1,0-0.1H10h0.1c0.3,0,1,0,1.9,0c0,0,0,0.1,0,0.1c0,1.2,1,2.2,2.2,2.2
		c1.2,0,2.2-1,2.2-2.2c0-0.1,0-0.1,0-0.1c0.1,0,0.2,0,0.2,0C18.3,12.3,18.1,11.1,18.1,11.1z M17.6,7.6c0,0,0,0.1,0,0.3h-3.9
		c-0.2,0-0.4-0.2-0.4-0.4V5.9c0-0.2,0.2-0.4,0.4-0.4h2.6c0.3,0.3,0.6,0.7,0.8,1C17.6,7.1,17.6,7.6,17.6,7.6z M4,0.8
		c1.9,0,3.5,1.5,3.5,3.5S5.9,7.7,4,7.7S0.6,6.1,0.6,4.2S2.1,0.8,4,0.8z M4.7,14c-0.9,0-1.6-0.7-1.6-1.6s0.7-1.6,1.6-1.6
		s1.6,0.7,1.6,1.6S5.6,14,4.7,14z M6.7,11.7c-0.3-0.8-1.1-1.5-2-1.5c-0.9,0-1.7,0.6-2,1.5H2c-0.3,0-0.6-0.3-0.6-0.6V7.1
		c0.7,0.6,1.6,1,2.6,1c2.2,0,3.9-1.8,3.9-3.9c0-0.6-0.2-1.2-0.4-1.7h2.6c0.3,0,0.6,0.3,0.6,0.6v8c0,0.3-0.3,0.6-0.6,0.6H6.7z
		 M14.1,14c-0.9,0-1.6-0.7-1.6-1.6s0.7-1.6,1.6-1.6s1.6,0.7,1.6,1.6S15,14,14.1,14z M16.6,11.8h-0.4c-0.3-0.9-1.1-1.5-2-1.5
		c-1,0-1.8,0.6-2,1.5h-1c0.2-0.2,0.3-0.4,0.3-0.7V4c0,0,2.2,0,3.1,0c0.9,0,1.3,0.6,1.3,0.6S15.8,4.8,16,5h-2.3
		c-0.5,0-0.8,0.4-0.8,0.8v1.6c0,0.5,0.4,0.8,0.8,0.8h4c0,0.8,0,2,0,2.6C17.6,11.9,16.6,11.8,16.6,11.8z"/>
</symbol>

<symbol id="meter" viewBox="0 0 15.2 15.2" style="enable-background:new 0 0 15.2 15.2;" xml:space="preserve">
    <path d="M4.3,3c0,0.2,0.4,0.4,1,0.4c0.6,0,1-0.2,1-0.4c0-0.2-0.4-0.4-1-0.4C4.8,2.6,4.3,2.7,4.3,3z"/>
	<path d="M15.1,6.7c0-1-0.8-1.8-1.8-1.8h-0.4v0H4.1c0,0-2.4,0.1-3.5-1.8c0.1-1.4,1.2-2.4,2.6-2.4h4
		c1.5,0,2.6,1.2,2.6,2.6v0.5h0.5V3.4c0-1.8-1.4-3.2-3.2-3.2H3.3c-1.8,0-3.2,1.4-3.2,3.2v1.3v0.2v3.2c0,1.8,1.4,3.2,3.2,3.2H4v-0.5
		H3.2c-1.5,0-2.6-1.2-2.6-2.6V4.9V4.7V4C0.9,4.4,1.9,5.4,4,5.4c3,0,8.8,0,8.8,0h0.5c0.7,0,1.2,0.5,1.2,1.2v0.6v0.2
		c0,0.7-0.5,1.2-1.2,1.2h-0.1v0H6.9c-1,0-1.8,0.8-1.8,1.8v2.7c0,1,0.8,1.8,1.8,1.8h6.4c1,0,1.8-0.8,1.8-1.8v-2.7c0,0,0-2.4,0-3.1
		c0,0,0,0,0-0.1V6.7z M14.5,13.3c0,0.7-0.5,1.2-1.2,1.2H6.8c-0.7,0-1.2-0.5-1.2-1.2v-2.9c0-0.7,0.5-1.2,1.2-1.2h1.9v1.7h0.5V9.2h2.3
		v0h0.9v1.7h0.5V9.2h0.4c0.5,0,1-0.2,1.3-0.5V13.3z"/>
</symbol>

<symbol id="happy" viewBox="0 0 18.8 20" style="enable-background:new 0 0 18.8 20;" xml:space="preserve">
    <path d="M17.4,5.8c0.2-0.2,0.4-0.4,0.5-0.6c0.7-0.9,0.6-1.3-0.1-1.9S16,3.6,16,3.6s-0.1,0.1-0.2,0.2
	c-1.1-1-2.5-1.8-4.1-2.2c-0.6-0.9-1.5-1.5-2.5-1.5c-1.1,0-2,0.7-2.6,1.6c-1.3,0.4-2.5,1.1-3.5,2C2.9,3.6,2.5,3.2,2,3.1
	C1.3,3,0.6,3.5,0.5,4.2c0,0.4,0.4,1,0.9,1.6C0.5,7.2,0,8.8,0,10.6c0,5.1,4.2,9.3,9.4,9.3c1.8,0,3.6-0.5,5-1.4l-0.3-0.7c0,0,0,0,0,0
	c-1.3-3.3-1-5.4-0.9-6.4c0.3-1.1,1.4-2.6,2-3.4c0.4-0.5,1-1,1.6-1.6C17.6,7.6,18,9,18,10.6c0,2.3-1,4.4-2.5,6l0.6,0.5
	c1.7-1.7,2.7-4,2.7-6.5C18.8,8.8,18.3,7.2,17.4,5.8z M9.2,0.9c1.3,0,2.3,1.2,2.3,2.7s-1,2.7-2.3,2.7S6.9,5.2,6.9,3.6
	S7.9,0.9,9.2,0.9z M9.2,7.1c1.7,0,3.1-1.6,3.1-3.5c0-0.4-0.1-0.7-0.2-1.1c1.2,0.4,2.2,1,3.1,1.8c-0.8,0.7-2,1.6-2.6,2
	C11.7,7,10.2,7.7,9,7.7c-1.2,0-1.8-0.5-2.7-0.9C5.5,6.4,4.2,4.9,3.6,4.3c0.8-0.7,1.7-1.2,2.6-1.6C6.2,3,6.1,3.3,6.1,3.6
	C6.1,5.6,7.5,7.1,9.2,7.1z M0.8,10.6c0-1.5,0.4-2.9,1.1-4.2c0.2,0.2,0.3,0.3,0.3,0.3s2.5,2.9,3,3.6c0.5,0.7-0.1,1.2-0.5,3
	c-0.3,1.4-0.3,3.3-0.3,4.2C2.2,15.9,0.8,13.4,0.8,10.6z M16.3,5.8c-0.4,0.4-1.8,1.6-3,3.5c-1.2,1.9-1,3.4-0.9,4.5
	c0.1,1.1,0.4,2.1,0.5,2.5c0.1,0.3,0.5,1.4,0.6,1.7c-1.2,0.6-2.6,1-4,1c-1.6,0-3-0.4-4.3-1.1c0-3.4,0.2-3.9,0.3-4.4
	C5.5,13,5.8,12,6.1,11.2C6.3,10.5,6,9.9,5.7,9.6C5.4,9.3,2.5,5.8,2,5.1c-0.6-0.7-0.7-1-0.2-1.2c0.5-0.3,1.8,1.3,2.4,2
	c0.5,0.7,2.8,2.6,4.9,2.5s3.6-1.2,4.2-1.6c0.5-0.4,3.1-2.5,3.5-2.8c0.4-0.3,0.9,0,0.8,0.3C17.5,4.6,16.7,5.4,16.3,5.8z"/>
</symbol>

<symbol id="tasty" viewBox="0 0 20.6 20.8" style="enable-background:new 0 0 20.6 20.8;" xml:space="preserve">
    <path d="M10.3,0.2C4.7,0.2,0.1,4.8,0.1,10.4c0,5.6,4.6,10.2,10.2,10.2c5.6,0,10.2-4.6,10.2-10.2
		C20.5,4.8,15.9,0.2,10.3,0.2z M10.3,19.8c-5.2,0-9.4-4.2-9.4-9.4C0.9,5.2,5.1,1,10.3,1s9.4,4.2,9.4,9.4
		C19.7,15.6,15.5,19.8,10.3,19.8z"/>
	<path d="M10.3,15.7c-3.5,0-5.6-3.1-5.6-3.1L4,13.1c2.8,3.6,6.3,3.5,6.3,3.5s3.5,0.2,6.3-3.5l-0.7-0.5
		C15.9,12.6,13.8,15.7,10.3,15.7z"/>
	<path d="M6.9,11.5C9.3,10.4,9.7,9,9.7,8.3c0-0.8-0.5-1.7-1.4-1.7c-1,0-1.4,0.5-1.4,0.5S6.5,6.6,5.5,6.6
		c-0.9,0-1.4,1-1.4,1.7C4.1,9,4.5,10.4,6.9,11.5z M6.9,8.1c0.5-0.8,1.9-0.9,2,0.1c0,1.4-2,2.4-2,2.4s-2-1-2-2.4
		C5,7.2,6.4,7.3,6.9,8.1z"/>
	<path d="M13.7,11.5c2.4-1.1,2.8-2.5,2.8-3.1c0-0.8-0.5-1.7-1.4-1.7c-1,0-1.4,0.5-1.4,0.5s-0.4-0.5-1.4-0.5
		c-0.9,0-1.4,1-1.4,1.7C10.9,9,11.3,10.4,13.7,11.5z M13.7,8.1c0.5-0.8,1.9-0.9,2,0.1c0,1.4-2,2.4-2,2.4s-2-1-2-2.4
		C11.8,7.2,13.2,7.3,13.7,8.1z"/>
</symbol>

<symbol id="strong" viewBox="0 0 22.3 18.9" style="enable-background:new 0 0 22.3 18.9;" xml:space="preserve">
    <path d="M17.4,3.1c-2.1,0-4.8,1.5-4.7,4.6c0,0-4.1-1.3-5.3,3c0,0-0.7-1.5-1.6-2.2C4.8,7.8,3.6,6,3.5,5.1
	c0.1-0.5,0.2-0.5,0.4-0.6c0.1,0,0.1,0.8,1,0.9c0.8-0.1,1-0.3,1.3-0.7l0.9-1c0,0,0.9-1.2,0.1-1.8C6.5,1.2,5.2-0.1,3.6,0.2
	C2.7,0.4,2,1.1,2,1.1L0.8,2.2C0.8,2.2,0,3,0,4.6c0,1.4,0.3,3.7,0.3,3.7s0.3,1.8,0.4,2.4c0.1,0.6,0.9,4.1,2.8,6
	c1.2,1.4,1.9,2,2.5,2.1c1,0,1.5-0.6,2.3-0.6c0.8,0,1.6,0.6,3.3,0.6s5.5-1,7.1-5.9c1.5-0.6,3.6-1.7,3.6-5C22.3,4.6,19.4,3.1,17.4,3.1
	z M18.1,12.3c-1.1,4.4-4.6,5.6-6.3,5.8c-1.6,0-2.5-0.6-3.7-0.6c-0.7,0-1.7,0.6-2,0.6s-1.1-0.7-2.1-1.8s-1.4-2.1-1.8-2.9
	c-0.4-0.8-1.1-4-1.1-4S0.8,6.2,0.8,4.8c0-1.3,0.6-2.1,0.6-2.1S2.2,2,3,1.3c0.9-0.7,2-0.2,2-0.2s1.1,0.7,1.5,1.1c0.5,0.4,0,0.8,0,0.8
	S5.4,4.4,5,4.5C4.5,4.6,4.4,3.4,4.4,3.4C3.9,3.6,3.1,3.8,2.8,4.7C2.5,5.8,4.1,8.1,5.3,9.2c1.1,1.1,1.8,2.9,1.8,2.9L8,11.8
	c0,0-0.1-2.1,1.7-3.2c2-1.1,3.8,0.4,3.8,0.4c-0.6-5,3.8-5.1,4.1-5.1s3.8,0.3,4.1,3.8C21.5,11.7,18.1,12.3,18.1,12.3z"/>
</symbol>

<symbol id="ingredients" viewBox="0 0 14 15" xml:space="preserve">
<path d="M44.6903 7.1641L38.8069 1.27893C37.9858 0.457505 36.8943 0 35.7301 0C34.5659 0 33.4641 0.457505 32.6429 
1.27893C31.7802 2.14195 31.3436 3.29611 31.3644 4.46067C30.2002 4.43987 29.0464 4.87658 28.1837 5.7396C27.3209 
6.60262 26.8843 7.75678 26.9051 8.92134C25.7409 8.89015 24.5871 9.33725 23.7244 10.2003C22.8616 11.0633 22.425 
12.2175 22.4458 13.382C21.2816 13.3612 20.1278 13.7979 19.2651 14.6609L4.71265 29.2179L0.315736 33.6162C0.191001 
33.7306 0.0974494 33.8865 0.0454764 34.0529C0.0454764 34.0737 0.0350818 34.0841 0.0350818 34.1049C-0.0272858 
34.344 -0.00649662 34.5832 0.0974494 34.7911C0.118239 34.8431 0.149422 34.8847 0.170212 34.9367C0.305341 35.1343 
0.502839 35.2902 0.752309 35.363L4.31766 36.382L5.33633 39.9485C5.42988 40.2916 5.70014 40.5619 6.05355 
40.6659L9.6189 41.6849L10.6376 45.2514C10.7103 45.5009 10.8663 45.6985 11.0741 45.8336C11.1157 45.8648 11.1573 
45.8856 11.2093 45.9064C11.3444 45.9688 11.4899 46 11.6355 46C11.729 46 11.8226 45.9896 11.9265 45.9584C12.1136 
45.9064 12.2695 45.8128 12.3943 45.6777L16.7912 41.2794L23.1007 34.9679C23.2254 35.0927 23.371 35.1759 23.5373 
35.2278C23.9011 35.3318 24.2961 35.2382 24.5663 34.9679L32.0816 27.4503C32.487 27.0448 32.487 26.3897 32.0816 
25.9842L31.9881 25.8906C32.4247 25.1731 32.6325 24.3517 32.6222 23.5303C33.7863 23.5511 34.9401 23.1144 35.8029 
22.2514C36.6656 21.3883 37.1022 20.2342 37.0814 19.0696C38.2456 19.1008 39.3994 18.6537 40.2622 17.7907C41.1249 
16.9277 41.5615 15.7735 41.5407 14.609C42.7049 14.6297 43.8587 14.193 44.7215 13.33C45.5426 12.5086 46 11.4064 
46 10.2419C45.9688 9.0877 45.5218 7.98553 44.6903 7.1641ZM12.1344 42.9638L11.4484 40.5411C11.3548 40.198 11.0845 
39.9277 10.7311 39.8237L7.16578 38.8151L6.14711 35.2486C6.05356 34.9055 5.7833 34.6352 5.42988 34.5312L3.00794 
33.8449L5.42988 31.4222L14.5459 40.5411L12.1344 42.9638ZM24.4208 32.1501L21.9781 20.8476C21.8533 20.2862 21.3024 
19.9326 20.7411 20.047C20.1798 20.1718 19.8264 20.7229 19.9407 21.2844L22.4043 32.6908L16.022 39.075L6.90591 
29.9561L19.9927 16.8653L29.8468 26.7224L24.4208 32.1501ZM43.2246 11.8639C42.5282 12.5606 41.468 12.7373 40.5948 
12.2902C40.1998 12.0927 39.7113 12.1655 39.3994 12.4878C39.0876 12.8101 39.0044 13.2884 39.2019 13.6835C39.6385 
14.5674 39.4618 15.6279 38.7758 16.3142C38.0897 17.0005 37.0191 17.1876 36.1459 16.7405C35.7509 16.5429 35.2624 
16.6157 34.9505 16.9381C34.6387 17.25 34.5555 17.7387 34.753 18.1338C35.1896 19.0176 35.0129 20.0782 34.3269 
20.7645C33.6304 21.4611 32.5702 21.6379 31.697 21.1908C31.302 20.9932 30.8135 21.066 30.5017 21.3883C30.1898 
21.7003 30.1067 22.189 30.3042 22.5841C30.5744 23.1352 30.616 23.7486 30.4289 24.3101L21.6662 15.5448C22.2276 
15.368 22.8408 15.3992 23.3917 15.6695C23.7867 15.8671 24.2753 15.7943 24.5871 15.472C24.899 15.1496 24.9821 
14.6713 24.7846 14.2762C24.348 13.3924 24.5248 12.3318 25.2108 11.6456C25.8968 10.9593 26.9675 10.7722 27.8406 
11.2193C28.2356 11.4168 28.7242 11.344 29.036 11.0217C29.3479 10.7098 29.431 10.2211 29.2335 9.82595C28.7969 
8.94213 28.9736 7.88155 29.6597 7.1953C30.3561 6.49864 31.4164 6.32188 32.2895 6.76899C32.6845 6.96655 33.1731 
6.89376 33.4849 6.57143C33.7967 6.25949 33.8799 5.7708 33.6824 5.37568C33.2458 4.49186 33.4225 3.43128 34.1086 
2.74503C34.5452 2.30832 35.1169 2.07957 35.7301 2.07957C36.3434 2.07957 36.9151 2.31872 37.3517 2.74503L43.2246 
8.6302C43.6612 9.06691 43.8899 9.63879 43.8899 10.2523C43.8899 10.8553 43.6508 11.4376 43.2246 11.8639Z"/>
</symbol>

<symbol id="vk" viewBox="0 0 36.7 36.7" style="enable-background:new 0 0 36.7 36.7;" xml:space="preserve">
    <path d="M36.5,26.8c0-0.1-0.1-0.2-0.1-0.2c-0.6-1.1-1.9-2.6-3.7-4.2l0,0l0,0l0,0h0c-0.8-0.8-1.3-1.3-1.5-1.6
	c-0.4-0.5-0.5-1-0.3-1.5c0.2-0.4,0.7-1.2,1.7-2.5c0.5-0.7,0.9-1.2,1.2-1.6c2.2-2.9,3.2-4.8,2.9-5.6l-0.1-0.2C36.5,9.1,36.3,9,36,8.9
	c-0.3-0.1-0.7-0.1-1.2,0l-5.5,0c-0.1,0-0.2,0-0.4,0c-0.2,0-0.2,0.1-0.2,0.1l-0.1,0l-0.1,0.1c-0.1,0-0.1,0.1-0.2,0.2
	c-0.1,0.1-0.1,0.2-0.2,0.3c-0.6,1.5-1.3,3-2,4.3c-0.5,0.8-0.9,1.5-1.3,2.1c-0.4,0.6-0.7,1-1,1.3c-0.3,0.3-0.5,0.5-0.7,0.7
	c-0.2,0.2-0.4,0.2-0.5,0.2c-0.1,0-0.2-0.1-0.3-0.1c-0.2-0.1-0.3-0.3-0.4-0.5c-0.1-0.2-0.2-0.4-0.2-0.7c0-0.3-0.1-0.6-0.1-0.8
	c0-0.2,0-0.5,0-0.9c0-0.4,0-0.7,0-0.8c0-0.5,0-1,0-1.6c0-0.6,0-1,0-1.3c0-0.3,0-0.7,0-1.1c0-0.4,0-0.7-0.1-0.9
	c0-0.2-0.1-0.4-0.2-0.6c-0.1-0.2-0.2-0.4-0.4-0.5c-0.2-0.1-0.4-0.2-0.6-0.3c-0.7-0.2-1.5-0.2-2.6-0.2c-2.4,0-3.9,0.1-4.6,0.5
	c-0.3,0.1-0.5,0.3-0.7,0.6c-0.2,0.3-0.3,0.4-0.1,0.5c0.8,0.1,1.3,0.4,1.6,0.8l0.1,0.2c0.1,0.2,0.2,0.5,0.3,0.9
	c0.1,0.4,0.1,0.9,0.2,1.4c0.1,0.9,0.1,1.7,0,2.4c-0.1,0.7-0.1,1.2-0.2,1.5c-0.1,0.4-0.1,0.7-0.3,0.9c-0.1,0.2-0.2,0.4-0.2,0.4
	c0,0.1-0.1,0.1-0.1,0.1c-0.2,0.1-0.3,0.1-0.5,0.1c-0.2,0-0.4-0.1-0.6-0.3c-0.3-0.2-0.5-0.4-0.8-0.7c-0.3-0.3-0.6-0.7-0.9-1.3
	c-0.3-0.6-0.7-1.2-1.1-2l-0.3-0.6c-0.2-0.4-0.5-0.9-0.8-1.6c-0.3-0.7-0.6-1.3-0.9-2C7.7,9.5,7.5,9.3,7.3,9.1L7.2,9.1
	C7.1,9,7,9,6.9,8.9C6.8,8.9,6.6,8.8,6.5,8.8l-5.2,0C0.7,8.8,0.3,9,0.1,9.2L0.1,9.3C0,9.4,0,9.5,0,9.6c0,0.1,0,0.3,0.1,0.5
	c0.8,1.8,1.6,3.5,2.5,5.2c0.9,1.7,1.7,3,2.3,4c0.7,1,1.3,2,2,2.9c0.7,0.9,1.1,1.5,1.4,1.7c0.2,0.3,0.4,0.4,0.5,0.6L9.3,25
	c0.3,0.3,0.8,0.7,1.3,1.1c0.6,0.4,1.2,0.8,2,1.3c0.7,0.4,1.6,0.8,2.5,1c1,0.3,1.9,0.4,2.8,0.3h2.2c0.4,0,0.8-0.2,1-0.4l0.1-0.1
	c0.1-0.1,0.1-0.2,0.1-0.4c0-0.2,0.1-0.3,0.1-0.5c0-0.5,0-1,0.1-1.5c0.1-0.4,0.2-0.8,0.3-1c0.1-0.2,0.3-0.4,0.4-0.6
	c0.2-0.2,0.3-0.2,0.3-0.3c0.1,0,0.1-0.1,0.2-0.1c0.3-0.1,0.7,0,1.1,0.3c0.4,0.3,0.8,0.7,1.2,1.1c0.4,0.4,0.8,0.9,1.3,1.5
	c0.5,0.5,1,1,1.3,1.2l0.4,0.2c0.3,0.2,0.6,0.3,1,0.4c0.4,0.1,0.8,0.2,1.1,0.1l4.9-0.1c0.5,0,0.9-0.1,1.1-0.2
	c0.3-0.2,0.4-0.3,0.5-0.5c0.1-0.2,0.1-0.4,0-0.7C36.6,27.1,36.6,26.9,36.5,26.8L36.5,26.8z M36.5,26.8"/>
</symbol>

<symbol id="fb" viewBox="0 0 36.7 36.7" style="enable-background:new 0 0 36.7 36.7;" xml:space="preserve">
    <path d="M36.7,34.7c0,1.1-0.9,2-2,2h-9.4V22.5h4.8l0.7-5.5h-5.5v-3.5c0-1.6,0.4-2.7,2.7-2.7l2.9,0v-5
	c-0.5-0.1-2.2-0.2-4.3-0.2c-4.2,0-7.1,2.6-7.1,7.3V17h-4.8v5.5h4.8v14.2H2c-1.1,0-2-0.9-2-2V2c0-1.1,0.9-2,2-2h32.7c1.1,0,2,0.9,2,2
	V34.7z"/>
</symbol>

<symbol id="in" viewBox="0 0 36.7 36.7" style="enable-background:new 0 0 36.7 36.7;" xml:space="preserve">
    <path d="M32.3,0H4.4C2,0,0,1.9,0,4.3v28.1c0,2.4,2,4.3,4.4,4.3h27.9c2.4,0,4.4-1.9,4.4-4.3V4.3C36.7,1.9,34.7,0,32.3,0
	 M26.4,5.7c0-0.6,0.5-1.1,1.1-1.1H31c0.6,0,1.1,0.5,1.1,1.1v3.4c0,0.6-0.5,1.1-1.1,1.1h-3.4c-0.6,0-1.1-0.5-1.1-1.1L26.4,5.7
	L26.4,5.7z M18.4,11.3c3.9,0,7.1,3.1,7.1,7s-3.2,7-7.1,7s-7.1-3.1-7.1-7C11.3,14.5,14.5,11.3,18.4,11.3 M33.2,32.1
	c0,0.6-0.5,1.1-1.1,1.1H4.6c-0.6,0-1.1-0.5-1.1-1.1V14.9H8c-0.6,0.9-0.8,2.5-0.8,3.5c0,6.1,5,11.1,11.2,11.1s11.2-5,11.2-11.1
	c0-1-0.1-2.6-0.9-3.5h4.6L33.2,32.1L33.2,32.1z"/>
</symbol>

<symbol id="tw" viewBox="0 0 36.7 36.7" style="enable-background:new 0 0 36.7 36.7;" xml:space="preserve">
    <path d="M35.7,3.7c-1.5,0.9-3.1,1.5-4.8,1.9c-1.4-1.5-3.3-2.4-5.5-2.4c-4.2,0-7.5,3.5-7.5,7.7c0,0.6,0.1,1.2,0.2,1.8
	C11.8,12.3,6.3,9.2,2.6,4.5c-0.6,1.1-1,2.5-1,3.9c0,2.7,1.3,5,3.4,6.4c-1.2,0-2.4-0.4-3.4-1V14c0,3.7,2.6,6.9,6,7.6
	c-0.6,0.2-1.3,0.3-2,0.3c-0.5,0-1,0-1.4-0.1c1,3.1,3.7,5.3,7,5.4c-2.6,2.1-5.8,3.3-9.4,3.3c-0.6,0-1.2,0-1.8-0.1
	c3.3,2.2,7.3,3.5,11.5,3.5c13.9,0,21.4-11.8,21.4-22c0-0.3,0-0.7,0-1c1.5-1.1,2.8-2.4,3.8-4c-1.3,0.6-2.8,1-4.3,1.2
	C33.9,7,35.1,5.5,35.7,3.7"/>
</symbol>

<symbol id="close" viewBox="0 0 18 18" style="enable-background:new 0 0 18 18;" xml:space="preserve" >
	<path d="M12.2,9l5.2-5.2c0.8-0.8,0.8-2,0-2.7l-0.4-0.4c-0.8-0.8-2-0.8-2.7,0L9,5.8L3.8,0.6C3-0.2,1.8-0.2,1,0.6L0.6,1
	c-0.8,0.8-0.8,2,0,2.7L5.8,9l-5.2,5.2c-0.8,0.8-0.8,2,0,2.7L1,17.4c0.8,0.8,2,0.8,2.7,0L9,12.2l5.2,5.2c0.8,0.8,2,0.8,2.7,0l0.4-0.4
	c0.8-0.8,0.8-2,0-2.7L12.2,9z"/>
</symbol>

<symbol id="arrow" viewBox="0 0 14.2 25.5" style="enable-background:new 0 0 14.2 25.5;" xml:space="preserve">
	<polygon points="14.2,12.7 1.5,0 0,1.5 11.3,12.7 0,24 1.5,25.5 14.2,12.7 14.2,12.7"/>
</symbol>

<symbol id="grape" viewBox="0 -4 511.99686 511">
	<path d="m350.800781 271.742188c46.082031-31.78125 35.242188-110.890626-19.941406-126.097657-3.917969-1.082031-19.441406-.492187-21.324219-2.28125-3.144531-2.984375-4.996094-17.289062-7.417968-21.734375-6.90625-12.6875-17.902344-22.898437-30.890626-29.160156-27.035156-13.03125-59.71875-7.410156-79.855468 15.144531-19.398438-26.257812-53.28125-34.222656-82.585938-20.097656-12.980468 6.257813-24.207031 16.328125-31.5 28.785156-3.742187 6.390625-6.417968 13.371094-7.871094 20.632813-1.75 8.738281.476563 16.734375-.203124 25.242187-.472657 5.878907.882812 4.691407-5.542969 7.15625-3.648438 1.398438-7.160157 3.136719-10.507813 5.15625-7.402344 4.476563-13.820312 10.378907-19 17.300781-9.914062 13.246094-15.035156 29.925782-14.492187 46.449219.25 7.542969 1.671875 15.074219 4.28125 22.15625 1.527343 4.144531 3.460937 8.144531 5.75 11.917969.964843 1.589844 3.308593 4.042969 3.816406 5.613281 1.472656 4.566407 1.546875.949219-.691406 5.304688-4.207031 8.1875-11.878907 14.121093-15.617188 23.191406-3.769531 9.140625-5.640625 18.964844-5.519531 28.855469.113281 9.28125 1.964844 18.542968 5.582031 27.101562 1.722657 4.078125 4.511719 7.628906 6.292969 11.597656 1.5 3.347657 2.722656 2.964844 1.921875 5.84375-.363281 1.3125-5.988281 5.449219-6.8125 6.332032-12.28125 13.179687-18.800781 31.089844-18.671875 49.035156.28125 38.738281 32.1875 71.261719 71.460938 69.214844 17.636718-.917969 34.714843-8.703125 46.746093-21.671875 1.78125-1.917969 6.722657-11.242188 8.796875-11.875 1.691406-.519531 10.4375 4.007812 12.207032 4.472656 9.257812 2.414063 18.925781 2.699219 28.335937 1.03125 17.488281-3.105469 33.535156-13.132813 43.96875-27.507813 2.863281-3.945312 4.488281-8.777343 7.269531-12.640624.65625-.90625 1.175782-4.738282 2.066406-5.203126.4375-.230468 6.539063 1.785157 7.773438 2.027344 10.25 2.011719 20.976562 1.503906 31.023438-1.316406 10.65625-2.988281 20.53125-8.574219 28.609374-16.125 2.21875-2.078125 8.921876-12.953125 11.359376-13.785156 2.75-.941406 11.859374 3.152344 15.066406 3.507812 21.214844 2.34375 42.800781-6.078125 57.367187-21.558594 31.804688-33.800781 20.949219-92.273437-21.25-112.015624 2.710938-1.871094 5.421875-3.738282 8.132813-5.609376-2.710938 1.871094-5.421875 3.738282-8.132813 5.609376zm-56.328125-71.714844c2.46875-2.886719 4.96875-6.304688 6.667969-9.714844.578125-1.007812 1.125-2.03125 1.640625-3.074219 2.425781-4.863281 4.359375-9.921875 5.625-15.21875 1.746094-7.285156.175781-8.355469 7.449219-8.976562 6.875-.585938 15.1875 2.765625 20.976562 6.242187 11.523438 6.914063 19.050781 18.96875 22.019531 31.90625 2.882813 12.582032 1.640626 26.414063-4.363281 37.933594-3.226562 6.1875-7.804687 11.613281-13.460937 15.71875-1.875 1.363281-18.621094 9.394531-18.621094 7.628906.019531-.328125.03125-.660156.03125-.996094.058594-2.351562.011719-4.792968-.207031-7.140624-.019531-.355469-.050781-.710938-.089844-1.066407 0-.046875-.007813-.097656-.007813-.15625-2.148437-20.4375-12.484374-39.195312-29.417968-51 .585937-.695312 1.171875-1.390625 1.757812-2.085937.296875-.347656-.558594.707031 0 0 2.527344-2.957032-.558594.707031 0 0zm-1.425781 29.679687c.15625.195313.296875.382813.421875.582031 2.476562 3.472657 4.453125 7.289063 5.96875 11.269532.175781.453125.34375.90625.492188 1.367187.078124.1875.136718.375.195312.5625.109375.304688.207031.609375.296875.925781 1.101563 3.195313 1.589844 6.585938 2.066406 9.917969.046875.472657.097657.945313.125 1.421875.03125.226563.039063.453125.050781.679688.039063.453125.058594.90625.078126 1.359375.011718.105469.011718.226562.011718.332031.203125 4.273438.085938 9.457031-1.277344 13.554688-.089843.386718-.148437.761718-.179687 1.144531-7.160156 17.226562-18.167969 32.535156-37.429687 36.625-.011719 0-.03125.011719-.039063.011719-12.039063 2.570312-26.515625.398437-36.527344-7.121094-.804687-.523438-1.574219-1.074219-2.289062-1.625-.011719-.011719-.03125-.023438-.039063-.03125-20.550781-15.621094-24.304687-43.796875-12.089844-65.835938 12.660157-22.835937 35.667969-29.558594 59.527344-21.582031.523438.21875 1.03125.453125 1.542969.691406.011719 0 .023437 0 .03125.007813.5.238281 1.003906.472656 1.496094.730468.085937.039063.175781.089844.265625.128907 1.425781.730469 2.8125 1.535156 4.148437 2.410156 1.226563.792969 2.417969 1.636719 3.570313 2.535156 1.09375.84375 2.148437 1.742188 3.152344 2.6875.1875.15625.367187.324219.542968.503907 1.296875 1.125 5.449219 6.136718 5.886719 6.746093.15625.195313-.570313-.796875 0 0zm-104.996094 10.855469c-.632812 2.214844-1.144531 4.460938-1.546875 6.746094-14.210937.386718-26.78125-5.949219-36.605468-15.820313-6.125-6.679687-10.351563-14.933593-12.222657-23.867187-9.355469-24.417969 13.308594-54.101563 36.09375-59.824219-2.574219 24.976563 8.878907 50.527344 29.410157 65.035156-7.082032 7.988281-12.324219 17.597657-15.179688 27.886719.398438-1.425781.8125-2.847656 1.203125-4.277344-.382813 1.375-.769531 2.75-1.152344 4.121094-.632812 2.214844 2.886719-10.304688 0 0zm14.589844 65.980469h-.011719v.011719c-11.335937 7.996093-21.535156 20.425781-25.394531 33.976562h-.011719c-1.617187-.394531-3.210937-.851562-4.789062-1.378906-4.523438-1.511719-9.414063-1.847656-14.15625-1.933594-1.898438-.039062-3.796875-.011719-5.695313.082031-1.46875.253907-2.941406.382813-4.421875.382813-1.207031.058594-2.390625.238281-3.550781.53125-.078125.011718-.167969.019531-.246094.039062-.503906.199219-1.019531.296875-1.542969.296875-16.371093-8.945312-27.152343-27.351562-26.222656-46.0625v-.128906c.023438-.515625.046875-1.03125.066406-1.546875 0-.058594 0-.117188.011719-.167969.019531-.382812.050781-.757812.078125-1.132812 0-.046875.011719-.097657.011719-.148438.125-1.414062.246094-3.269531.609375-4.726562.332031-1.898438.765625-3.761719 1.328125-5.605469.019531-.058594.039063-.128906.058594-.1875.019531-.117188.058593-.226562.097656-.34375.972656-3.453125 2.460937-6.410156 4.039063-9.574219.789062-1.433593 1.640624-2.820312 2.558593-4.167969 2.617188-4.007812 5.929688-7.601562 9.675781-10.582031 1.054688-1.109375 2.246094-1.996093 3.578126-2.660156.410156-.285156.824218-.558594 1.246093-.816406.296875-.195313.59375-.375.886719-.550781l.011719.007812c12.40625 10.886719 28.148437 16.867188 44.570312 16.867188h.292969c.316406 3.8125.746094 9.34375 2.476562 12.816406.203126.722656.421876 1.441406.660157 2.15625.019531.066406.050781.128906.070312.195312.238281.726563.488281 1.449219.746094 2.167969 2.949219 8.125 7.34375 15.609375 12.96875 22.183594zm-3.460937-176.003907c.039062-.089843.085937-.179687.128906-.265624.007812-.019532.027344-.050782.039062-.070313 23.855469-43.65625 90.925782-24.195313 91.457032 24.292969 0 .105468 0 .226562.011718.335937v.144531c0 11.613282-3.996094 22.808594-11.050781 31.957032-.058594.070312-.109375.136718-.167969.207031-1.640625 2.078125-3.496094 4.011719-5.445312 5.792969-13.253906-4.347656-31.417969-5.101563-44.257813 1.339844-1.855469.691406-9.207031 5.398437-10.855469 5.308593-2.585937-.140625-6.589843-4.363281-8.371093-5.894531-5.765625-4.953125-10.394531-11.222656-13.40625-18.210938-.03125-.078124-.058594-.15625-.097657-.234374-6.046874-14.269532-4.585937-32.511719 1.695313-44.117188-.570313 1.058594-.464844.859375.320313-.585938.039062-.089843-1.523438 2.816407 0 0zm-62.464844-31.050781c17.972656 0 34.375 10.1875 42.898437 26.28125-.082031.160157-.148437.316407-.21875.484375-.105469.226563-.207031.453125-.304687.6875-34.933594 3.261719-61.769532 34.5625-62.199219 69.203125-4.027344-1.699219-7.953125-4.210937-11.207031-7.132812-.363282-.292969-.71875-.609375-1.0625-.925781-36.132813-27.125-10.605469-88.597657 32.09375-88.597657zm-59.042969 86.164063c.058594.109375.128906.230468.195313.328125 1.203124 2.089843 3.015624 5.417969 4.828124 7.230469.265626.363281.550782.726562.835938 1.082031.175781.238281.363281.464843.5625.691406.261719.335937.527344.660156.8125.996094 0 .007812 0 .007812.011719.007812 5.320312 6.429688 12.371093 12.550781 19.957031 16.1875 3.960938 2.132813 12.105469 3.148438 15.214844 5.898438 3.160156 2.800781 5.296875 12.964843 7.835937 16.964843-3.453125 2.125-6.683593 4.859376-9.550781 7.730469-.15625.140625-.3125.289063-.460938.445313-.273437.253906-.539062.519531-.796874.796875-4.632813 4.640625-8.441407 9.96875-11.601563 15.703125-.046875.078125-.085937.167968-.125.246094-.980469.839843-1.46875 1.800781-1.464844 2.875-.226562.523437-.464843 1.039062-.71875 1.546874-.011719.019532-.019531.03125-.019531.050782-.707031 1.550781-1.351562 3.125-1.929688 4.726562-.464843 1.28125-1.054687 2.722656-1.347656 4.078125-.121094.394531-.234375.792969-.34375 1.191407-.117187.382812-.222656.769531-.3125 1.164062-.039062.125-.070312.253906-.097656.382812-.089844.304688-.167969.609376-.238281.914063-.007813.058594-.027344.109375-.039063.167969-.539062 2.226562-.726562 4.542968-1.277344 6.757812-.007812.050782-.007812.089844-.019531.140625-.011719.035157-.011719.078125-.011719.117188-.019531.078125-.019531.15625-.027343.234375l-.03125.238281s0 0-.007813 0c-.535156.078125-1.066406.179687-1.59375.304687-3.851562.640626-7.925781.949219-11.808594.542969-.039062 0-.089843-.011719-.128906-.011719-.472656-.039062-.945312-.078124-1.40625-.128906-.097656-.019531-.1875-.027344-.273437-.027344-4.039063-.527343-8.011719-1.503906-11.820313-2.957031-1.796875-.707031-3.542968-1.519531-5.238281-2.433593-.867187-.566407-1.761719-1.082032-2.683594-1.546876-.5-.308593-.992187-.628906-1.476562-.964843-.375-.253907-.757813-.511719-1.132813-.777344-.019531-.019531-.039062-.03125-.058594-.039063-.960937-.78125-1.9375-1.542968-2.929687-2.285156-30.484375-25.617187-18.882813-79.898437 20.71875-88.570312-.164063-.300782-8.636719 1.875-9.804687 2.171875 3.242187-.820313 6.542968-1.457031 9.804687-2.171875.058594.109375-22.183594 4.859375 0 0zm-27.226563 108.261718c3.449219 2.292969 10.074219 7.25 14.316407 7.25 6.058593 2.160157 12.679687 3.753907 19.132812 3.960938h.011719c3.222656.210938 6.988281.464844 10.1875-.175781 2.421875-1.507813 3.628906-1.648438 3.625-.425781 1.585938 10.324218 5.507812 22.820312 12.527344 30.855468 0 .007813.011718.019532.011718.019532 3.082032 4.296874 6.578126 8.265624 10.605469 11.703124.039063.027344.070313.066407.121094.097657-10.066406 6.164062-29.027344 22.675781-29.027344 35.90625-2.34375.585937-4.777343 1.078125-7.195312 1.28125-.199219.03125-.394531.046875-.589844.058593-48.230469 4.402344-70.789063-61.472656-33.726563-90.53125.082032.054688-4.5 4.78125-5.183593 4.328126-.117188-.078126 6.648437-5.476563 5.183593-4.328126 1.621094 1.078126-12.074218 9.46875 0 0zm17.777344 191.277344c-25.398437 0-44.796875-20.144531-47.828125-44.695312-1.417969-11.515625.777344-23.445313 6.878907-33.382813 2.507812-4.082031 7.152343-11.394531 11.808593-12.976562 5.480469-1.863281 15.6875 5.355469 22.269531 7.558593 7.230469 2.066407 15.125 3.199219 22.660157 2.511719 1.273437-.109375 2.542969-.21875 3.816406-.324219-.5 8.488282.558594 17.734376 3.460937 25.738282 1.09375 3.476562 2.402344 7.3125 4.335938 10.410156 2.621094 5.15625 5.882812 10.484375 9.988281 14.601562 5.042969 5.828126 5.585938 5.527344.574219 11.921876-2.878906 3.671874-6.238281 6.867187-10.023438 9.585937-8.140624 5.847656-17.902343 9.050781-27.941406 9.050781zm136.234375-69.34375c0 .019532-.007812.03125-.007812.050782-6.21875 37.96875-52.851563 55.195312-81.019531 28.324218-12.667969-12.078125-20.039063-30-15.414063-47.320312 4.371094-16.371094 17.835937-35.816406 36.121094-38.433594 9.078125-2.410156 27.535156-3.1875 34.964843 4.253906.019532.011719.03125.019532.050782.03125h.007812c.011719 0 .011719.011719.019532.011719 18.820312 10.324219 28.511718 33.730469 25.382812 52.476563.167969-1.027344.136719-.824219-.105469.605468 0 .019532.464844-2.765625 0 0zm37.316407-1.191406c-5.839844 0-11.640626-1.082031-17.082032-3.171875.15625-2.699219.285156-5.816406-.019531-8.550781-.171875-2.929688-.648437-5.785156-1.0625-8.6875-.117187-.613282-.234375-1.222656-.363281-1.832032-.007813-.019531-.007813-.039062-.019532-.058593-.109374-.535157-.226562-1.066407-.355468-1.585938-.007813-.050781-.019532-.089843-.027344-.140625-2.460938-9.25-7.523438-24.964844-16.007812-30.644531-.394532-.453125-.796876-.894531-1.21875-1.332031-.199219-.226563-.414063-.453125-.648438-.679688-2.96875-3.203125-6.417969-5.988281-9.960938-8.519531.03125-.109375.058594-.207031.097657-.304687.078125-.296876.167969-.582032.265625-.867188.914062-3.050781 2.261718-6.207031 3.863281-8.984375 2.230469-4.214844 5.125-8.089844 8.554687-11.40625.265626-.277344.539063-.542969.816407-.796875.253906-.257812.511719-.496094.777343-.730469.214844-.207031.441407-.402343.667969-.589843.117188-.121094.234375-.226563.355469-.316407.234375-.207031.460938-.402343.695312-.589843 2.148438-1.878907 4.609376-3.546876 7.109376-4.9375 10.839843 6.789062 23.082031 10.195312 35.859374 10.265624-.011718.128907-.019531.265626-.039062.40625-.648438 9.984376.804688 20.027344 4.207031 29.429688 1.902344 5.257812 7.082031 19.085938 12.605469 21.863281.148438.175781.296875.355469.460938.53125 0 .011719.011718.03125.039062.039063l.011719.011718c.304687.355469.617187.707032.945312 1.050782v.011718c1.992188 2.21875 4.136719 4.289063 6.421875 6.207032 4.273438 1.46875 4.648438 3.492187 1.128906 6.066406-1.460937 3.683594-6.992187 7.433594-10.101562 9.675781-8.136719 5.871094-17.910156 9.167969-27.976562 9.167969zm80.632812-28.554688c-30.460938 0-52.78125-29.753906-48.167969-59.046874 8.886719-2.804688 20.191407-8.046876 26.164063-15.535157.695312-.65625 1.371094-1.324219 2.035156-2.011719.117188-.105468.226562-.214843.324219-.332031.921875-.949219 1.804687-1.925781 2.652343-2.9375.265626-.296875.511719-.589843.757813-.894531.109375-.121094.207031-.238281.304687-.367188 1.464844-1.765624 3.550782-4.199218 4.621094-6.34375 2.550782-3.863281 4.808594-8.128906 6.429688-12.46875.121094-.265624.21875-.542968.324218-.820312 27.90625-2.738281 52.414063 20.898438 53.363282 48.390625.9375 27.191406-21.078125 52.367187-48.808594 52.367187zm0 0"/><path d="m436.164062 144.464844c-5.429687 0-9.835937-4.410156-9.835937-9.851563 0-5.4375 4.398437-9.847656 9.828125-9.847656h.007812c5.433594 0 9.832032 4.410156 9.832032 9.847656 0 5.441407-4.398438 9.851563-9.832032 9.851563zm0 0"/><path d="m507.773438 167.695312c-8.789063-36.222656-35.160157-67.203124-78.429688-92.183593 6.222656-9.453125 38.347656-71.0625 15.484375-74.859375-13.910156-2.308594-13.835937 21.902344-16.429687 30.492187-4.378907 14.5-10.917969 28.492188-20.304688 40.4375-.007812 0-.007812 0-.019531.007813-18.230469 23.917968-48.546875 37.472656-78.3125 37.472656-8.421875-.457031-13.558594 10.085938-7.871094 16.394531 3.921875 4.351563 10.558594 3.425781 15.78125 3.09375 19.242187-1.210937 38.539063-7.289062 54.976563-17.359375-18.984376 70.296875 27.625 122.894532 83.113281 158.519532 0 0 .007812.011718.019531.011718.097656.058594.1875.117188.292969.175782 1.621093 1.003906 3.902343 1.542968 5.761719 1.332031.148437 0 .296874-.019531.453124-.050781.359376-.035157.710938-.097657 1.0625-.1875.605469-.121094 1.226563-.367188 1.789063-.621094.070313-.019532.136719-.058594.199219-.089844.066406-.027344.136718-.058594.195312-.097656 1.371094-.6875 2.5625-1.726563 3.472656-2.964844.035157-.046875.078126-.105469.117188-.15625 1.292969-1.863281 31.578125-46.09375 18.648438-99.367188-8.789063-36.222656 12.929687 53.273438 0 0zm-24.511719 67.578126c-5.246094-16.757813-10.542969-33.507813-16.21875-50.125-2.734375-8.019532-6.074219-27.601563-16.59375-28.785157-17.171875-1.925781-7.84375 18.511719-5.054688 26.316407 6.390625 17.871093 12.035157 36.03125 17.730469 54.128906-22.128906-17.109375-43.28125-38.65625-51.746094-66.042969-8.175781-26.457031-1.585937-53.082031 8.335938-78.085937 52.070312 30.136718 87.253906 81.429687 63.546875 142.59375-8.199219-26.195313 0 0 0 0zm0 0"/>
</symbol>

<symbol id="wallnut" viewBox="0 0 498.613 498.613" style="enable-background:new 0 0 498.613 498.613;" xml:space="preserve">
	<path d="M450.231,117.215c-2.383-3.387-7.061-4.201-10.449-1.816c-3.388,2.384-4.201,7.063-1.816,10.45  c26.108,37.095,39.908,79.786,39.908,123.458c0,56.535-23.323,111.31-65.674,154.235c-31.918,32.351-73.081,56.518-118.814,70.244  c-9.156-7.448-14.702-22.076-17.242-46.35c9.316,8.669,21.791,13.987,35.491,13.987c15.887,0,30.748-7.187,40.613-19.436  c1.26,0.092,2.518,0.139,3.766,0.139c28.758,0,52.154-23.396,52.154-52.154c0-4.346-0.526-8.614-1.57-12.759  c13.721-5.632,25.921-14.997,34.891-26.901c10.885-14.445,16.638-31.664,16.638-49.797c0-18.059-5.844-35.444-16.592-49.738  c10.449-9.786,16.5-23.512,16.5-38.064c0-25.479-18.113-46.705-42.434-51.248c-0.579-23.15-16.217-42.899-38.24-48.937  c-7.174-25.679-30.74-43.838-57.825-43.838c-13.35,0-25.692,4.383-35.674,11.78c5.504-13.186,13.173-24.236,22.343-31.533  c44.329,15.451,83.52,40.857,113.623,74.218c2.776,3.076,7.519,3.319,10.593,0.543c3.075-2.775,3.318-7.517,0.544-10.592  C385.935,43.205,321.794,10.166,250.356,0.074c-0.695-0.099-1.402-0.099-2.098,0c-66.83,9.441-128.1,39.438-172.522,84.463  c-45.138,45.75-69.996,104.266-69.996,164.77s24.858,119.02,69.996,164.77c44.423,45.025,105.692,75.021,172.522,84.463  c0.348,0.049,0.698,0.074,1.049,0.074s0.701-0.024,1.049-0.074c66.83-9.441,128.099-39.438,172.521-84.463  c45.138-45.75,69.996-104.266,69.996-164.77C492.873,202.527,478.128,156.851,450.231,117.215z M319.534,63.69  c21.584,0,40.188,15.365,44.238,36.535c0.586,3.065,3.01,5.447,6.085,5.98c17.172,2.978,29.802,17.374,30.702,34.622  c-11.921,1.2-22.974,6.42-31.56,15.006c-2.93,2.929-2.93,7.677-0.001,10.606c1.465,1.465,3.384,2.197,5.304,2.197  c1.919,0,3.839-0.732,5.303-2.197c7.019-7.018,16.35-10.882,26.273-10.882c0.178,0,0.35-0.038,0.519-0.092  c0.354,0.067,0.712,0.118,1.077,0.134c19.939,0.841,35.559,17.143,35.559,37.113c0,10.278-4.25,19.968-11.58,26.93  c-15.343-14.185-35.155-21.97-56.17-21.97c-4.143,0-7.5,3.358-7.5,7.5s3.357,7.5,7.5,7.5c18.121,0,35.158,7.057,47.971,19.871  c0.372,0.372,0.774,0.696,1.198,0.974c0.26,0.44,0.565,0.858,0.916,1.243c11.451,12.528,17.758,28.777,17.758,45.756  c0,14.849-4.709,28.947-13.617,40.77c-7.365,9.773-17.385,17.447-28.646,22.056c-9.308-15.7-26.234-25.524-44.849-25.524  c-13.931,0-27.027,5.425-36.879,15.276c-2.929,2.929-2.929,7.678,0,10.606c2.93,2.929,7.678,2.929,10.607,0  c7.018-7.018,16.348-10.882,26.271-10.882c14.968,0,28.406,8.908,34.238,22.695c0.001,0.002,0.002,0.003,0.003,0.005  c0.002,0.006,0.004,0.011,0.006,0.017c1.929,4.571,2.907,9.428,2.907,14.438c0,18.879-14.157,34.503-32.412,36.841  c1.996-5.588,3.034-11.506,3.034-17.544c0-4.142-3.357-7.5-7.5-7.5s-7.5,3.358-7.5,7.5c0,7.359-2.147,14.467-6.204,20.561  c-0.01,0.014-0.022,0.026-0.032,0.041c-6.922,10.364-18.48,16.552-30.919,16.552c-20.486,0-37.153-16.667-37.153-37.154  c0-10.333,4.151-19.936,11.688-27.039c2.816-2.654,3.151-7.016,0.772-10.069c-8.152-10.459-12.461-22.999-12.461-36.261  c0-18.289,8.286-35.255,22.734-46.549c0.067-0.052,0.126-0.113,0.191-0.167c10.42-8.076,22.909-12.347,36.137-12.347  c4.143,0,7.5-3.358,7.5-7.5s-3.357-7.5-7.5-7.5c-14.464,0-28.224,4.077-40.178,11.837c-12.054-12.865-18.884-29.913-18.884-47.655  c0-18.473,7.16-35.881,20.162-49.018c0.026-0.026,0.047-0.055,0.072-0.082c13.184-13.282,30.744-20.597,49.462-20.597  c4.143,0,7.5-3.358,7.5-7.5s-3.357-7.5-7.5-7.5c-20.503,0-39.851,7.241-55.204,20.486c-9.158-8.477-14.493-20.45-14.493-33.065  C274.481,83.901,294.692,63.69,319.534,63.69z M20.739,249.306c0-56.535,23.323-111.31,65.674-154.235  c28.917-29.309,65.419-51.906,106.035-66.105c9.151,7.297,16.803,18.334,22.299,31.498c-9.981-7.393-22.321-11.775-35.667-11.775  c-27.086,0-50.652,18.159-57.825,43.838c-22.023,6.038-37.661,25.786-38.24,48.937c-24.319,4.543-42.434,25.769-42.434,51.248  c0,14.553,6.051,28.279,16.5,38.064c-10.749,14.294-16.593,31.679-16.593,49.738c0,1.78,0.057,3.576,0.17,5.339  c0.264,4.135,3.861,7.275,7.962,7.007c4.134-0.264,7.271-3.829,7.007-7.962c-0.092-1.447-0.139-2.922-0.139-4.384  c0-16.979,6.307-33.229,17.758-45.755c0.352-0.385,0.657-0.803,0.917-1.245c0.423-0.277,0.823-0.601,1.195-0.972  c12.814-12.813,29.852-19.871,47.973-19.871c4.143,0,7.5-3.358,7.5-7.5s-3.357-7.5-7.5-7.5c-21.015,0-40.827,7.786-56.17,21.971  c-7.33-6.962-11.58-16.652-11.58-26.931c0-19.97,15.618-36.271,35.558-37.113c0.365-0.015,0.723-0.066,1.078-0.134  c0.169,0.054,0.341,0.092,0.519,0.092c9.924,0,19.254,3.865,26.272,10.882c1.464,1.465,3.384,2.197,5.303,2.197  s3.839-0.732,5.304-2.197c2.929-2.929,2.929-7.678-0.001-10.606c-8.586-8.586-19.639-13.807-31.559-15.006  c0.9-17.248,13.53-31.645,30.702-34.622c3.075-0.533,5.499-2.915,6.085-5.981c4.049-21.169,22.653-36.534,44.238-36.534  c24.843,0,45.054,20.211,45.054,45.054c0,12.615-5.335,24.588-14.492,33.065c-15.354-13.245-34.702-20.486-55.204-20.486  c-4.143,0-7.5,3.358-7.5,7.5s3.357,7.5,7.5,7.5c18.719,0,36.282,7.318,49.468,20.603c0.023,0.024,0.043,0.051,0.066,0.075  c13.002,13.138,20.162,30.546,20.162,49.018c0,17.741-6.83,34.79-18.884,47.656c-11.956-7.76-25.715-11.837-40.179-11.837  c-4.143,0-7.5,3.358-7.5,7.5s3.357,7.5,7.5,7.5c13.229,0,25.719,4.272,36.141,12.35c0.063,0.053,0.121,0.112,0.187,0.164  c14.448,11.294,22.734,28.26,22.734,46.549c0,13.263-4.309,25.802-12.461,36.261c-2.38,3.053-2.045,7.415,0.771,10.069  c7.538,7.103,11.689,16.705,11.689,27.039c0,20.487-16.667,37.154-37.154,37.154c-12.438,0-23.996-6.188-30.918-16.552  c-0.011-0.017-0.025-0.031-0.037-0.047c-4.055-6.092-6.2-13.198-6.2-20.555c0-4.142-3.357-7.5-7.5-7.5s-7.5,3.358-7.5,7.5  c0,6.039,1.038,11.956,3.033,17.544c-18.254-2.337-32.412-17.962-32.412-36.841c0-5.01,0.979-9.867,2.908-14.437  c0.003-0.007,0.005-0.014,0.008-0.021c0,0,0.001-0.001,0.001-0.002c5.831-13.786,19.27-22.694,34.237-22.694  c9.925,0,19.255,3.865,26.272,10.882c2.93,2.929,7.678,2.929,10.607,0c2.929-2.929,2.929-7.678,0-10.606  c-9.852-9.851-22.948-15.276-36.88-15.276c-18.617,0-35.541,9.823-44.849,25.524c-15.431-6.293-28.182-18.159-35.518-33.299  c-1.806-3.727-6.291-5.285-10.02-3.479c-3.728,1.806-5.285,6.292-3.479,10.02c8.941,18.454,24.471,32.942,43.279,40.634  c-1.043,4.143-1.569,8.409-1.569,12.753c0,28.758,23.396,52.154,52.154,52.154c1.248,0,2.506-0.046,3.767-0.139  c9.865,12.249,24.726,19.436,40.612,19.436c13.699,0,26.174-5.317,35.49-13.985c-2.541,24.27-8.085,38.9-17.241,46.348  c-45.733-13.727-86.895-37.893-118.814-70.244C44.063,360.616,20.739,305.842,20.739,249.306z M249.307,483.536  c-9.328-1.35-18.534-3.131-27.594-5.303c12.227-15.78,17.42-43.284,17.42-88.965c0-12.089-4.272-23.845-11.892-33.125  c7.799-11.979,11.892-25.768,11.892-40.243c0-20.102-7.977-38.925-22.14-52.8c14.157-15.53,22.14-35.908,22.14-57.081  c0-19.694-6.695-38.391-19.006-53.462c12.023-11.278,19.006-27.129,19.006-43.813c0-18.854-3.677-37.605-10.632-54.229  c-5.116-12.229-11.776-22.654-19.59-30.78c13.138-3.762,26.639-6.667,40.396-8.659c13.796,1.997,27.293,4.904,40.409,8.644  c-7.82,8.128-14.485,18.557-19.604,30.794c-6.955,16.623-10.631,35.375-10.631,54.229c0,16.685,6.982,32.535,19.005,43.813  c-12.31,15.071-19.005,33.767-19.005,53.462c0,21.174,7.982,41.551,22.139,57.081c-14.162,13.875-22.139,32.699-22.139,52.8  c0,14.476,4.092,28.263,11.892,40.243c-7.619,9.281-11.892,21.037-11.892,33.125c0,45.681,5.193,73.185,17.42,88.965  C267.841,480.406,258.634,482.186,249.307,483.536z"/>
</symbol>

<symbol id="seeds" viewBox="-34 0 511 511.9962">
	<path d="m437.5 216.417969-3.777344-15.113281-14.0625 11.378906c-5.050781-14.03125-10.324218-22.488282-12.75-25.9375l-2.695312-3.835938-4.660156-.355468c-3.121094-.230469-9.964844-.429688-19.773438.804687l6.199219-18.972656-17.339844 4.222656c-4.828125 1.175781-10.15625 2.695313-15.863281 4.582031 0-.027344.011718-.046875.011718-.078125 2.207032-114.1875-45.875-164.871093-51.359374-170.277343-.097657-.097657-.238282-.121094-.347657-.210938-.121093-.109375-.167969-.257812-.289062-.355469-.65625-.546875-1.421875-.804687-2.15625-1.152343-.367188-.167969-.664063-.4375-1.054688-.566407-1.332031-.445312-2.722656-.644531-4.09375-.5078122-.019531 0-.03125-.0117188-.050781-.0117188-7.660156.785156-76.898438 10.296875-147.03125 101.398438-3.976562 6.132812-7.671875 12.503906-11.242188 18.992187-31.828124-22.832031-56.199218-28.703125-63.371093-29.957031-2.914063-.515625-5.914063.308594-8.160157 2.238281-3.648437 3.121094-25.003906 22.636719-41.988281 64.648437-.226562.464844-.398437.921876-.554687 1.429688-10.039063 25.269531-18.457032 58.472656-20.589844 101.007812.773438 24.695313 4.628906 49.820313 11.457031 74.644532 6.796875 24.835937 16.308594 48.398437 28.679688 70.757812 28.613281 43.0625 54.699219 53.785156 75.96875 53.785156 12.667969 0 23.621093-3.804687 32.378906-6.835937 4.609375-1.597656 24.585937-7.203125 27.824219-7.949219 9.898437 20.125 26.992187 28.441406 39.425781 34.464844 4.390625 2.125 25.597656 14.199219 29.664063 16.882812 10.613281 7.015626 24.894531 16.457032 44.632812 16.457032 18.753906 0 42.425781-8.515625 72.539062-35.765625 16.921876-18.019531 31.960938-38.5 44.679688-60.890625 12.757812-22.378906 22.699219-45.765625 29.742188-70.3125 11.863281-58.8125 6.546874-102.390625.007812-128.609375zm-64.6875-11.785157c9.042969-1.855468 15.972656-2.324218 20.394531-2.382812 2.601563 4.519531 6.449219 12.324219 9.964844 23.769531l-50.792969 41.105469zm-103.066406-178.027343c-7.902344 11.824219-15.78125 25.25-24.265625 41.351562-2.554688 4.859375-.695313 10.859375 4.152343 13.425781 1.480469.777344 3.0625 1.144532 4.621094 1.144532 3.566406 0 7.027344-1.929688 8.804688-5.308594 11.230468-21.316406 21.296875-37.683594 31.742187-51.625 13.484375 17.808594 39.742188 63.273438 38.152344 146.316406-.320313 3.109375-.714844 6.230469-1.152344 9.332032-.257812.117187-.515625.246093-.785156.367187-2.632813 1.171875-5.335937 2.433594-8.082031 3.777344-1.796875.875-3.585938 1.789062-5.375 2.710937-1.042969.539063-2.085938 1.085938-3.140625 1.640625-10.117188 5.367188-20.183594 11.519531-30.171875 18.445313-.65625.445312-1.300782.902344-1.957032 1.359375-2.296874 1.613281-4.582031 3.261719-6.867187 4.960937-.953125.707032-1.910156 1.441406-2.871094 2.164063-2.109375 1.601562-4.214843 3.210937-6.324219 4.882812-1.351562 1.074219-2.710937 2.207031-4.074218 3.320313-1.765625 1.449218-3.546875 2.871094-5.316406 4.371094-3.167969 2.691406-6.371094 5.476562-9.589844 8.386718-4.230469 4.503906-8.335938 9.15625-12.324219 13.964844-8.226563 9.917969-15.910156 20.472656-23.023437 31.5625-.011719.011719-.019532.019531-.03125.03125-3.242188 5.027344-6.339844 10.144531-9.300782 15.332031-.398437.707031-.753906 1.460938-1.152344 2.167969-3.390624 6.039062-6.539062 12.171875-9.511718 18.363281-.058594.121094-.136719.289063-.238282.507813l-.21875.476562c-.097656.210938-.1875.429688-.296874.644532h-.011719c-.011719.011718 0 .03125-.011719.042968-.347656.722656-.664062 1.460938-1.003906 2.1875 7.84375-63.914062 22.183594-123.910156 42.855468-178.519531 1.945313-5.136719-.636718-10.871094-5.773437-12.816406-5.140625-1.941407-10.875.644531-12.8125 5.773437-21.890625 57.828125-36.847656 121.460938-44.699219 189.238282-1.789062-.546876-3.496094-1.105469-5.417968-1.640626-21.871094-6.070312-49.082032-13.644531-47.832032-79.941406 2.335938-23.015625 7.59375-46.257812 15.632813-69.089844 4.195312-11.984374 9.382812-24.148437 15.394531-36.152343.03125-.050781.019531-.109375.050781-.15625 4.679688-9.332031 9.691407-18.316407 15.105469-26.703125 41.628906-54.058594 81.890625-76.757813 107.121094-86.296875zm-99.0625 398.574219c-3.796875.945312-21.765625 5.929687-28.214844 8.167968-21.457031 7.460938-48.128906 16.742188-84.839844-38.472656-11.199218-20.28125-20.113281-42.382812-26.496094-65.707031-6.417968-23.328125-10.035156-46.878907-10.769531-69.191407 1.878907-37.027343 8.714844-66.125 17.003907-88.644531 14.945312-.6875 29.832031-2.753906 44.332031-6.332031 5.328125-1.3125 8.585937-6.695312 7.261719-12.023438-1.3125-5.335937-6.738282-8.605468-12.023438-7.265624-10.117188 2.496093-20.453125 4.15625-30.859375 5.117187 10.457031-21.324219 21.320313-34.035156 26.984375-39.742187 9.035156 2.335937 28.503906 9.054687 53.039062 27.171874-.296874.625-.546874 1.261719-.835937 1.898438-1.996094 4.332031-3.976563 8.675781-5.792969 13.128906-2.21875 5.363282-4.285156 10.722656-6.152344 16.050782-8.546874 24.296874-14.152343 49.082031-16.707031 74.484374-1.597656 82.503907 38.429688 93.632813 62.339844 100.28125 4.703125 1.3125 18.703125 7.265626 19.042969 7.265626.078125 0 .367187-.011719.425781-.019532-.1875.546875-.347656 1.113282-.535156 1.660156-1.867188 5.253907-3.488281 10.226563-4.871094 15.035157-.070313.257812-.136719.527343-.199219.796875-1.070312 5.324218-1.886718 10.355468-2.511718 15.152344-.21875 1.652343-.308594 3.183593-.46875 4.78125-.324219 3.152343-.636719 6.28125-.773438 9.203124-.078125 1.558594-.070312 3.050782-.089844 4.570313-.050781 3.019531-.03125 5.941406.109375 8.714844.058594 1.085937.128907 2.167969.21875 3.230469.285157 3.667968.734375 7.125 1.339844 10.367187.011719.097656.023437.21875.042969.320313zm247.515625-84.863282c-6.410157 22.242188-15.730469 44.164063-27.71875 65.191406-11.953125 21.03125-26.054688 40.25-41.320313 56.539063-49.78125 45.019531-73.351562 29.425781-92.304687 16.90625-5.695313-3.769531-25.808594-15.214844-31.960938-18.199219-12.113281-5.871094-25.929687-12.679687-32.488281-30.738281-.046875-.179687 0-.355469-.070312-.535156-4.769532-13.863281-4.808594-32.785157-.128907-56.238281 1.234375-4.246094 2.644531-8.476563 4.085938-12.695313 1.34375-3.824219 2.804687-7.789063 4.503906-12.132813 2.644531-6.757812 5.515625-13.335937 8.535156-19.746093.21875-.476563.507813-1.101563.527344-1.132813.007813-.011718 0-.03125.007813-.050781l.011718-.007813c3.128906-6.582031 6.449219-12.96875 9.9375-19.089843 0-.011719.011719-.011719.019532-.019531 2.785156-4.890626 5.714843-9.691407 8.746093-14.421876 3.089844-4.820312 6.300781-9.488281 9.589844-14.050781.03125-.039062.070313-.070312.089844-.109375.019531-.027344.019531-.046875.039062-.078125 7.214844-9.96875 14.859375-19.339843 22.851563-27.875 4.121094-3.726562 8.1875-7.195312 12.222656-10.523437 1.179688-.976563 2.363281-1.910156 3.546875-2.863282 2.960937-2.375 5.882813-4.660156 8.785156-6.835937 1.203125-.90625 2.40625-1.808594 3.609375-2.683594 3.082032-2.246093 6.113282-4.363281 9.113282-6.382812.894531-.605469 1.789062-1.242188 2.683593-1.835938 7.921875-5.226562 15.5625-9.722656 22.835938-13.578125 1.484375-.78125 2.960937-1.480468 4.453125-2.222656 2.078125-1.042969 4.175781-2.128906 6.191406-3.070312 2.503906-1.175782 5.007812-2.257813 7.523438-3.320313 4.710937-2.007813 9.28125-3.847656 13.542968-5.335937l-43.058594 131.726562 108.851563-88.097656c4.089844 24.550781 5.601563 59.464844-3.253906 103.507812zm0 0"/><path d="m290.296875 254.730469c-3.078125 1.847656-75.496094 46.410156-80.007813 136.390625-.28125 5.484375 3.945313 10.144531 9.417969 10.425781.171875.007813.339844.007813.507813.007813 5.257812 0 9.648437-4.121094 9.917968-9.4375 3.976563-79.15625 69.765626-119.953126 70.421876-120.359376 4.691406-2.832031 6.191406-8.945312 3.359374-13.636718-2.824218-4.703125-8.925781-6.230469-13.617187-3.390625zm0 0"/>
</symbol>

<symbol id="powder" enable-background="new 0 0 511 511" viewBox="0 0 511 511">
	<circle cx="135.5" cy="175.5" r="7.5"/><circle cx="183.5" cy="175.5" r="7.5"/><circle cx="159.5" cy="207" r="7.5"/><circle cx="207.5" cy="207" r="7.5"/><circle cx="63" cy="207" r="7.5"/><circle cx="111.5" cy="207" r="7.5"/><circle cx="159.5" cy="144" r="7.5"/><circle cx="111.5" cy="144" r="7.5"/><circle cx="88" cy="175.5" r="7.5"/><path d="m487.5 224h-71.392c-4.143 0-7.5 3.358-7.5 7.5s3.357 7.5 7.5 7.5h71.392c4.687 0 8.5 3.813 8.5 8.5v2.446c0 4.172-2.987 7.699-7.103 8.385l-226.631 37.771c-3.616.603-6.267 3.731-6.267 7.398v40c0 31.154-25.346 56.5-56.5 56.5h-128c-31.153 0-56.499-25.346-56.499-56.5v-104.5h364.326c4.143 0 7.5-3.358 7.5-7.5s-3.357-7.5-7.5-7.5h-110.745c-4.269-10.311-15.456-35.376-32.9-60.749-30.248-43.996-64.89-67.251-100.181-67.251s-69.933 23.255-100.181 67.251c-22.263 32.384-34.339 64.274-34.841 65.616-.015.04-.023.081-.037.121-.072.203-.135.409-.19.62-.019.073-.04.146-.056.219-.05.219-.088.441-.119.666-.008.059-.021.118-.027.177-.031.273-.049.549-.049.83v112c0 39.425 32.075 71.5 71.5 71.5h128c39.425 0 71.5-32.075 71.5-71.5v-33.646l220.364-36.727c11.378-1.898 19.636-11.646 19.636-23.181v-2.446c0-12.958-10.542-23.5-23.5-23.5zm-352-113c61.131 0 103.635 83.529 116.725 113h-233.457c13.069-29.471 55.522-113 116.732-113z"/>
</symbol>

<symbol id="apitherapy" viewBox="0 0 60 60">
	<path d="m.47 53.848c8.698 5.437 8.122 5.152 8.53 5.152s-.1.239 8-4.821c8.117 5.073 7.6 4.821 8 4.821s0 .177 6.54-3.912c.469442-.2929871.612487-.9110579.3194999-1.3805-.292987-.469442-.9110579-.612487-1.3804999-.3195l-5.479 3.433-7-4.375v-6.892l3.651-2.286c.469442-.2932632.6122632-.911558.319-1.381s-.911558-.6122632-1.381-.319l-3.589 2.252-7-4.374v-6.892l7-4.374c3.9 2.443 3.643 2.316 3.922 2.373.4689316.0873966.9343088-.1685789 1.1115902-.6114178.1772815-.4428388.0171067-.9492413-.3825902-1.2095822l-3.651-2.286v-6.892l7-4.375 7 4.375v1.446c0 .5522847.4477153 1 1 1s1-.4477153 1-1v-1.446l7-4.375 7 4.375v7.446c0 .5522847.4477153 1 1 1s1-.4477153 1-1v-8c.0000008-.3447904-.1776185-.6652611-.47-.848l-7.53-4.706v-7.446c.0000008-.34479043-.1776185-.66526107-.47-.848l-8-5c-.3242708-.20266981-.7357292-.20266981-1.06 0l-7.47 4.669-7.47-4.669c-.3242708-.20266981-.7357292-.20266981-1.06 0l-8 5c-.29238147.18273893-.47000081.50320957-.47.848v7.446l-7.53 4.706c-.29238147.1827389-.47000081.5032096-.47.848v8c-.00000081.3447904.17761853.6652611.47.848l7.53 4.706v6.892l-7.53 4.706c-.29238147.1827389-.47000081.5032096-.47.848v8c-.00000081.3447904.17761853.6652611.47.848zm32.53-51.669 7 4.375v6.892l-7 4.375-7-4.375v-6.892zm-16 0 7 4.375v6.892l-7 4.375-7-4.375v-6.892zm-15 17.375 7-4.375 7 4.375v6.892l-7 4.375-7-4.375zm0 26 7-4.375 7 4.375v6.892l-7 4.375-7-4.375z"/><path d="m46 30.012v-1.012c-.0001797-1.7518097-.7676023-3.4156551-2.1-4.553l1-2c.2412059-.493494.039214-1.0891622-.4524127-1.3341516-.4916268-.2449894-1.0888289-.0475788-1.3375873.4421516l-.927 1.861c-1.3993259-.5531106-2.9566741-.5531106-4.356 0l-.927-1.862c-.157688-.3226209-.4762521-.5359231-.834616-.5588369-.3583639-.0229139-.7015.1480791-.8989927.4479897-.1974927.2999105-.2190167.6826868-.0563913 1.0028472l1 2c-1.3363877 1.1356891-2.1076168 2.800228-2.11 4.554v1.009c-.91-.009-1.9-.009-3-.009-5.312 0-11 2.411-11 6 0 4.308 8.125 6.579 12.167 5.891-.092.8-.167 1.89-.167 2.609 0 7 3 12.581 7 13.389v1.111c0 .5522847.4477153 1 1 1s1-.4477153 1-1v-1.111c4-.808 7-6.393 7-13.389 0-.715-.076-1.812-.166-2.6 4.095.677 12.166-1.6 12.166-5.9 0-3.589-5.688-6-11-6-1.05 0-2.061 0-3 .012zm-10-1.012c0-2.209139 1.790861-4 4-4s4 1.790861 4 4v1.052c-1.3532201-.022481-2.7013032.1719832-3.993.576-1.2930839-.4191962-2.6481418-.6149981-4.007-.579zm4.006 6.381c.468581.9376968 1.0462471 1.8167831 1.721 2.619h-3.457c.6736963-.8061467 1.2559209-1.6845144 1.736-2.619zm-18.006.619c0-1.8 4.153-4 9-4 2 0 6.731-.036 7.973.358-.342 2.405-3.827 7.642-7.973 7.642-4.847 0-9-2.2-9-4zm14.214 4h7.555c.6056562.4785529 1.2619019.8893351 1.957 1.225.04.257.075.516.106.775h-6.832c-.5522847 0-1 .4477153-1 1s.4477153 1 1 1h6.977c.0437111.6665261.0313342 1.3355467-.037 2h-11.88c-.0656006-.664616-.0779733-1.3334123-.037-2h.977c.5522847 0 1-.4477153 1-1s-.4477153-1-1-1h-.832c.032-.265.067-.53.109-.793.6876696-.3306399 1.3371846-.7353713 1.937-1.207zm-.714 12h4.5c.5522847 0 1-.4477153 1-1s-.4477153-1-1-1h-5.241c-.1903886-.6575983-.3439603-1.3253014-.46-2h11.401c-.1160397.6746986-.2696114 1.3424017-.46 2h-1.24c-.5522847 0-1 .4477153-1 1s.4477153 1 1 1h.5c-2.434 5.33-6.567 5.328-9 0zm22.5-16c0 2.487-7.435 4.99-10.992 3.61-2.9713691-1.401203-5.1630793-4.0544996-5.978-7.237 1.437-.433 5.77-.358 7.97-.373 4.847 0 9 2.2 9 4z"/></g>
</symbol>

<symbol id="beans" viewBox="0 0 512.001 512.001" xml:space="preserve"> 
	<path d="M242.488,120.593c-3.526-4.394-9.945-5.097-14.337-1.571c-5.263,4.224-11.622,6.457-18.39,6.457
		c-6.768,0-13.127-2.232-18.39-6.457c-4.392-3.527-10.811-2.823-14.337,1.571c-3.526,4.392-2.823,10.811,1.571,14.337
		c8.795,7.058,19.859,10.946,31.156,10.946c11.297,0,22.361-3.888,31.156-10.946C245.311,131.404,246.014,124.986,242.488,120.593z"/>
	<path d="M504.631,264.492c-8.163-22.526-22.391-41.812-41.147-55.774c-13.269-9.878-28.419-16.679-44.683-20.203
		c3.462-32.092-6.464-65.395-27.393-90.697c-22.63-27.358-55.115-42.424-91.47-42.424h-5.942c-25.451,0-50.164,9.038-71.469,26.135
		c-3.653,2.932-8.068,4.482-12.766,4.482c-4.698,0-9.113-1.55-12.766-4.482c-21.304-17.099-46.018-26.135-71.469-26.135h-5.942
		c-26.268,0-50.843,7.958-71.069,23.014C29.76,92.37,15.532,111.657,7.369,134.182c-8.129,22.435-9.564,46.232-4.149,68.822
		c5.843,24.371,19.547,46.11,39.632,62.866c15.333,12.792,32.083,23.777,49.861,32.725c-0.727,11.66,0.258,23.342,2.985,34.719
		c5.843,24.371,19.547,46.11,39.632,62.866c46.708,38.966,105.984,60.427,166.909,60.427s120.202-21.459,166.909-60.427
		c20.085-16.756,33.789-38.495,39.631-62.866C514.195,310.726,512.761,286.927,504.631,264.492z M95.972,277.276
		c-14.191-7.646-27.63-16.703-40.053-27.067c-39.007-32.542-40.749-77.682-29.372-109.077c11.446-31.588,41.898-65.34,93.039-65.34
		h5.942c20.758,0,41.057,7.485,58.702,21.646c7.208,5.786,16.276,8.971,25.533,8.971s18.325-3.186,25.533-8.971
		c17.644-14.162,37.944-21.646,58.702-21.646h5.942c30.165,0,57.068,12.44,75.754,35.029
		c17.351,20.974,25.637,48.509,22.887,75.049c-2.045-0.098-4.096-0.165-6.163-0.165h-5.942c-25.451,0-50.164,9.038-71.469,26.135
		c-3.653,2.932-8.067,4.481-12.766,4.481c-4.699,0-9.113-1.55-12.766-4.481c-21.305-17.099-46.018-26.135-71.469-26.135h-5.942
		c-26.268,0-50.843,7.958-71.069,23.014c-18.756,13.962-32.985,33.249-41.147,55.774C98.317,268.712,97.026,272.979,95.972,277.276
		z M456.082,380.518c-43.047,35.914-97.683,55.692-153.843,55.692s-110.796-19.779-153.843-55.692
		c-39.007-32.541-40.749-77.682-29.373-109.077c11.447-31.588,41.898-65.34,93.039-65.34h5.942
		c20.758,0,41.057,7.485,58.702,21.646c7.208,5.785,16.276,8.971,25.533,8.971s18.324-3.186,25.533-8.971
		c17.645-14.161,37.944-21.646,58.702-21.646h5.942c51.141,0,81.592,33.753,93.039,65.34
		C496.831,302.836,495.088,347.977,456.082,380.518z"/>
	<path d="M333.342,249.52c-3.526-4.393-9.944-5.096-14.337-1.571c-5.263,4.224-11.622,6.457-18.39,6.457
		c-6.768,0-13.126-2.232-18.39-6.457c-4.392-3.526-10.811-2.823-14.337,1.571c-3.526,4.392-2.823,10.811,1.571,14.337
		c8.795,7.058,19.86,10.946,31.156,10.946c11.296,0,22.361-3.887,31.156-10.946C336.164,260.332,336.868,253.913,333.342,249.52z"/>
	<path d="M412.074,384.932c-2.57-5.011-8.718-6.991-13.729-4.419c-29.909,15.341-62.244,23.12-96.106,23.12
		c-5.633,0-10.198,4.566-10.198,10.198c0,5.633,4.566,10.198,10.198,10.198c37.131,0,72.598-8.535,105.415-25.369
		C412.665,396.09,414.644,389.943,412.074,384.932z"/>
	<path d="M451.608,356.061c-3.608-4.327-10.038-4.909-14.363-1.3c-2.362,1.97-4.797,3.912-7.237,5.774
		c-4.479,3.417-5.34,9.816-1.924,14.294c2.007,2.632,5.044,4.014,8.116,4.014c2.157,0,4.33-0.681,6.177-2.09
		c2.675-2.04,5.344-4.169,7.932-6.329C454.634,366.816,455.216,360.385,451.608,356.061z"/>
</symbol>
</svg>